<?xml version="1.0" encoding="utf-8"?>
<!-- Generated by Mocodo 4.2.12 -->
<svg width="1023" height="499" viewBox="0 0 1023 499" xmlns="http://www.w3.org/2000/svg">
<rect x="0" y="0" width="1023" height="499" fill="#f5f5f5" stroke="none" stroke-width="0"/>

<!-- Association BIRTHDATE2 -->
<g>
	<line x1="70" y1="254" x2="70" y2="68" stroke="#bf812d" stroke-width="2"/>
	<line x1="233" y1="68" x2="70" y2="68" stroke="#bf812d" stroke-width="2"/>
	<g>
		<path d="M91 43 a14 14 90 0 1 14 14 V68 h-70 V57 a14 14 90 0 1 14 -14" fill="#dfc27d" stroke="#dfc27d" stroke-width="0"/>
		<path d="M105 68 v11 a14 14 90 0 1 -14 14 H49 a14 14 90 0 1 -14 -14 V68 H70" fill="#f6e8c3" stroke="#f6e8c3" stroke-width="0"/>
		<rect x="35" y="43" width="70" height="50" fill="none" rx="14" stroke="#bf812d" stroke-width="2"/>
		<line x1="35" y1="68" x2="105" y2="68" stroke="#bf812d" stroke-width="1"/>
		<text x="42" y="60.75" fill="#000000" font-family="Verdana" font-size="12">birthdate</text>
	</g>
	<text x="75" y="136" fill="#01665e" font-family="Verdana" font-size="12">     </text>
	<text x="170" y="85" fill="#01665e" font-family="Verdana" font-size="12">     </text>
</g>

<!-- Association BIRTHDATE -->
<g>
	<line x1="514" y1="68" x2="382" y2="68" stroke="#bf812d" stroke-width="2"/>
	<line x1="233" y1="68" x2="382" y2="68" stroke="#bf812d" stroke-width="2"/>
	<g>
		<path d="M403 43 a14 14 90 0 1 14 14 V68 h-70 V57 a14 14 90 0 1 14 -14" fill="#dfc27d" stroke="#dfc27d" stroke-width="0"/>
		<path d="M417 68 v11 a14 14 90 0 1 -14 14 H361 a14 14 90 0 1 -14 -14 V68 H70" fill="#f6e8c3" stroke="#f6e8c3" stroke-width="0"/>
		<rect x="347" y="43" width="70" height="50" fill="none" rx="14" stroke="#bf812d" stroke-width="2"/>
		<line x1="347" y1="68" x2="417" y2="68" stroke="#bf812d" stroke-width="1"/>
		<text x="354" y="60.75" fill="#000000" font-family="Verdana" font-size="12">birthdate</text>
	</g>
	<text x="422" y="85" fill="#01665e" font-family="Verdana" font-size="12">     </text>
	<text x="274" y="85" fill="#01665e" font-family="Verdana" font-size="12">     </text>
</g>

<!-- Association ANSWER_SURVEYS -->
<g>
	<line x1="810" y1="68" x2="669" y2="68" stroke="#bf812d" stroke-width="2"/>
	<line x1="514" y1="68" x2="669" y2="68" stroke="#bf812d" stroke-width="2"/>
	<g>
		<path d="M713 43 a14 14 90 0 1 14 14 V68 h-116 V57 a14 14 90 0 1 14 -14" fill="#dfc27d" stroke="#dfc27d" stroke-width="0"/>
		<path d="M727 68 v11 a14 14 90 0 1 -14 14 H625 a14 14 90 0 1 -14 -14 V68 H116" fill="#f6e8c3" stroke="#f6e8c3" stroke-width="0"/>
		<rect x="611" y="43" width="116" height="50" fill="none" rx="14" stroke="#bf812d" stroke-width="2"/>
		<line x1="611" y1="68" x2="727" y2="68" stroke="#bf812d" stroke-width="1"/>
		<text x="619" y="60.75" fill="#000000" font-family="Verdana" font-size="12">Answer_Surveys</text>
	</g>
	<text x="739" y="85" fill="#01665e" font-family="Verdana" font-size="12">     </text>
	<text x="584" y="85" fill="#01665e" font-family="Verdana" font-size="12">     </text>
</g>

<!-- Association CONTAINS_A_LIST_OF2 -->
<g>
	<line x1="810" y1="68" x2="951" y2="68" stroke="#bf812d" stroke-width="2"/>
	<line x1="951" y1="254" x2="951" y2="68" stroke="#bf812d" stroke-width="2"/>
	<g>
		<path d="M1000 43 a14 14 90 0 1 14 14 V68 h-126 V57 a14 14 90 0 1 14 -14" fill="#dfc27d" stroke="#dfc27d" stroke-width="0"/>
		<path d="M1014 68 v11 a14 14 90 0 1 -14 14 H902 a14 14 90 0 1 -14 -14 V68 H126" fill="#f6e8c3" stroke="#f6e8c3" stroke-width="0"/>
		<rect x="888" y="43" width="126" height="50" fill="none" rx="14" stroke="#bf812d" stroke-width="2"/>
		<line x1="888" y1="68" x2="1014" y2="68" stroke="#bf812d" stroke-width="1"/>
		<text x="895" y="60.75" fill="#000000" font-family="Verdana" font-size="12">Contains_a_list_of</text>
	</g>
	<text x="859" y="85" fill="#01665e" font-family="Verdana" font-size="12">     </text>
	<text x="956" y="212" fill="#01665e" font-family="Verdana" font-size="12">     </text>
</g>

<!-- Association GET_A_YEARLY_TARGET -->
<g>
	<line x1="70" y1="254" x2="233" y2="254" stroke="#bf812d" stroke-width="2"/>
	<line x1="233" y1="68" x2="233" y2="254" stroke="#bf812d" stroke-width="2"/>
	<g>
		<path d="M289 229 a14 14 90 0 1 14 14 V254 h-140 V243 a14 14 90 0 1 14 -14" fill="#dfc27d" stroke="#dfc27d" stroke-width="0"/>
		<path d="M303 254 v11 a14 14 90 0 1 -14 14 H177 a14 14 90 0 1 -14 -14 V254 H140" fill="#f6e8c3" stroke="#f6e8c3" stroke-width="0"/>
		<rect x="163" y="229" width="140" height="50" fill="none" rx="14" stroke="#bf812d" stroke-width="2"/>
		<line x1="163" y1="254" x2="303" y2="254" stroke="#bf812d" stroke-width="1"/>
		<text x="170" y="246.75" fill="#000000" font-family="Verdana" font-size="12">Get_a_yearly_target</text>
	</g>
	<text x="136" y="271" fill="#01665e" font-family="Verdana" font-size="12">     </text>
	<text x="238" y="136" fill="#01665e" font-family="Verdana" font-size="12">     </text>
</g>

<!-- Association HAPPEND_THE -->
<g>
	<line x1="382" y1="397" x2="382" y2="254" stroke="#bf812d" stroke-width="2"/>
	<line x1="233" y1="68" x2="382" y2="254" stroke="#bf812d" stroke-width="2"/>
	<g>
		<path d="M415 229 a14 14 90 0 1 14 14 V254 h-94 V243 a14 14 90 0 1 14 -14" fill="#dfc27d" stroke="#dfc27d" stroke-width="0"/>
		<path d="M429 254 v11 a14 14 90 0 1 -14 14 H349 a14 14 90 0 1 -14 -14 V254 H94" fill="#f6e8c3" stroke="#f6e8c3" stroke-width="0"/>
		<rect x="335" y="229" width="94" height="50" fill="none" rx="14" stroke="#bf812d" stroke-width="2"/>
		<line x1="335" y1="254" x2="429" y2="254" stroke="#bf812d" stroke-width="1"/>
		<text x="342" y="246.75" fill="#000000" font-family="Verdana" font-size="12">happend_the</text>
	</g>
	<text x="387" y="296" fill="#01665e" font-family="Verdana" font-size="12">     </text>
	<text x="274" y="110.91" fill="#01665e" font-family="Verdana" font-size="12">     </text>
</g>

<!-- Association HAVE_TO_PAY -->
<g>
	<line x1="382" y1="397" x2="514" y2="254" stroke="#bf812d" stroke-width="2"/>
	<line x1="514" y1="68" x2="514" y2="254" stroke="#bf812d" stroke-width="2"/>
	<g>
		<path d="M548 229 a14 14 90 0 1 14 14 V254 h-96 V243 a14 14 90 0 1 14 -14" fill="#dfc27d" stroke="#dfc27d" stroke-width="0"/>
		<path d="M562 254 v11 a14 14 90 0 1 -14 14 H480 a14 14 90 0 1 -14 -14 V254 H96" fill="#f6e8c3" stroke="#f6e8c3" stroke-width="0"/>
		<rect x="466" y="229" width="96" height="50" fill="none" rx="14" stroke="#bf812d" stroke-width="2"/>
		<line x1="466" y1="254" x2="562" y2="254" stroke="#bf812d" stroke-width="1"/>
		<text x="474" y="246.75" fill="#000000" font-family="Verdana" font-size="12">Have_to_pay</text>
	</g>
	<text x="432" y="358.58" fill="#01665e" font-family="Verdana" font-size="12">     </text>
	<text x="519" y="144" fill="#01665e" font-family="Verdana" font-size="12">     </text>
</g>

<!-- Association CONTAINS_A_LIST_OF -->
<g>
	<line x1="382" y1="397" x2="669" y2="254" stroke="#bf812d" stroke-width="2"/>
	<line x1="810" y1="254" x2="669" y2="254" stroke="#bf812d" stroke-width="2"/>
	<g>
		<path d="M718 229 a14 14 90 0 1 14 14 V254 h-126 V243 a14 14 90 0 1 14 -14" fill="#dfc27d" stroke="#dfc27d" stroke-width="0"/>
		<path d="M732 254 v11 a14 14 90 0 1 -14 14 H620 a14 14 90 0 1 -14 -14 V254 H126" fill="#f6e8c3" stroke="#f6e8c3" stroke-width="0"/>
		<rect x="606" y="229" width="126" height="50" fill="none" rx="14" stroke="#bf812d" stroke-width="2"/>
		<line x1="606" y1="254" x2="732" y2="254" stroke="#bf812d" stroke-width="1"/>
		<text x="613" y="246.75" fill="#000000" font-family="Verdana" font-size="12">Contains_a_list_of</text>
	</g>
	<text x="432" y="387.68" fill="#01665e" font-family="Verdana" font-size="12">     </text>
	<text x="737" y="271" fill="#01665e" font-family="Verdana" font-size="12">     </text>
</g>

<!-- Association MAKE_AN_INVOICE -->
<g>
	<line x1="382" y1="397" x2="233" y2="397" stroke="#bf812d" stroke-width="2"/>
	<line x1="70" y1="254" x2="233" y2="397" stroke="#bf812d" stroke-width="2"/>
	<g>
		<path d="M279 372 a14 14 90 0 1 14 14 V397 h-120 V386 a14 14 90 0 1 14 -14" fill="#dfc27d" stroke="#dfc27d" stroke-width="0"/>
		<path d="M293 397 v11 a14 14 90 0 1 -14 14 H187 a14 14 90 0 1 -14 -14 V397 H120" fill="#f6e8c3" stroke="#f6e8c3" stroke-width="0"/>
		<rect x="173" y="372" width="120" height="50" fill="none" rx="14" stroke="#bf812d" stroke-width="2"/>
		<line x1="173" y1="397" x2="293" y2="397" stroke="#bf812d" stroke-width="1"/>
		<text x="181" y="389.75" fill="#000000" font-family="Verdana" font-size="12">Make_an_invoice</text>
	</g>
	<text x="310" y="414" fill="#01665e" font-family="Verdana" font-size="12">     </text>
	<text x="136" y="305.93" fill="#01665e" font-family="Verdana" font-size="12">     </text>
</g>

<!-- Association TAKE_PLACE_TO -->
<g>
	<line x1="382" y1="397" x2="514" y2="397" stroke="#bf812d" stroke-width="2"/>
	<line x1="669" y1="397" x2="514" y2="397" stroke="#bf812d" stroke-width="2"/>
	<g>
		<path d="M552 372 a14 14 90 0 1 14 14 V397 h-104 V386 a14 14 90 0 1 14 -14" fill="#dfc27d" stroke="#dfc27d" stroke-width="0"/>
		<path d="M566 397 v11 a14 14 90 0 1 -14 14 H476 a14 14 90 0 1 -14 -14 V397 H104" fill="#f6e8c3" stroke="#f6e8c3" stroke-width="0"/>
		<rect x="462" y="372" width="104" height="50" fill="none" rx="14" stroke="#bf812d" stroke-width="2"/>
		<line x1="462" y1="397" x2="566" y2="397" stroke="#bf812d" stroke-width="1"/>
		<text x="470" y="389.75" fill="#000000" font-family="Verdana" font-size="12">Take_place_to</text>
	</g>
	<text x="432" y="414" fill="#01665e" font-family="Verdana" font-size="12">     </text>
	<text x="596" y="414" fill="#01665e" font-family="Verdana" font-size="12">     </text>
</g>

<!-- Entity DIM_DATE -->
<g>
	<g>
		<rect x="197" y="17" width="72" height="25" fill="#80cdc1" stroke="none" stroke-width="0" opacity="1"/>
		<rect x="197" y="42" width="72" height="77" fill="#c7eae5" stroke="none" stroke-width="0" opacity="1"/>
		<rect x="197" y="17" width="72" height="102" fill="none" stroke="#35978f" stroke-width="2" opacity="1"/>
		<line x1="197" y1="42" x2="269" y2="42" stroke="#35978f" stroke-width="1"/>
	</g>
	<text x="203" y="34.75" fill="#000000" font-family="Verdana" font-size="12">Dim_Date</text>
	<text x="202" y="59.8" fill="#000000" font-family="Verdana" font-size="12">row_id</text>
	<line x1="202" y1="62" x2="244" y2="62" stroke="#000000" stroke-width="1"/>
	<text x="202" y="76.8" fill="#000000" font-family="Verdana" font-size="12">day</text>
	<text x="202" y="93.8" fill="#000000" font-family="Verdana" font-size="12">month</text>
	<text x="202" y="110.8" fill="#000000" font-family="Verdana" font-size="12">year</text>
</g>

<!-- Entity DIM_CUSTOMER -->
<g>
	<g>
		<rect x="449" y="9" width="130" height="25" fill="#80cdc1" stroke="none" stroke-width="0" opacity="1"/>
		<rect x="449" y="34" width="130" height="93" fill="#c7eae5" stroke="none" stroke-width="0" opacity="1"/>
		<rect x="449" y="9" width="130" height="118" fill="none" stroke="#35978f" stroke-width="2" opacity="1"/>
		<line x1="449" y1="34" x2="579" y2="34" stroke="#35978f" stroke-width="1"/>
	</g>
	<text x="469" y="26.75" fill="#000000" font-family="Verdana" font-size="12">Dim_Customer</text>
	<text x="454" y="51.8" fill="#000000" font-family="Verdana" font-size="12">customer_Id</text>
	<line x1="454" y1="54" x2="531" y2="54" stroke="#000000" stroke-width="1"/>
	<text x="454" y="68.8" fill="#000000" font-family="Verdana" font-size="12">Customer_Name</text>
	<text x="454" y="85.8" fill="#000000" font-family="Verdana" font-size="12">customer_Gender</text>
	<text x="454" y="102.8" fill="#000000" font-family="Verdana" font-size="12">customer_Gender</text>
	<text x="454" y="119.8" fill="#000000" font-family="Verdana" font-size="12">customer_Birthdate</text>
</g>

<!-- Entity FACT_SURVEY -->
<g>
	<g>
		<rect x="766" y="9" width="88" height="25" fill="#80cdc1" stroke="none" stroke-width="0" opacity="1"/>
		<rect x="766" y="34" width="88" height="93" fill="#c7eae5" stroke="none" stroke-width="0" opacity="1"/>
		<rect x="766" y="9" width="88" height="118" fill="none" stroke="#35978f" stroke-width="2" opacity="1"/>
		<line x1="766" y1="34" x2="854" y2="34" stroke="#35978f" stroke-width="1"/>
	</g>
	<text x="772" y="26.75" fill="#000000" font-family="Verdana" font-size="12">Fact_Survey</text>
	<text x="771" y="51.8" fill="#000000" font-family="Verdana" font-size="12">customer_Id</text>
	<line x1="771" y1="54" x2="848" y2="54" stroke="#000000" stroke-width="1"/>
	<text x="771" y="68.8" fill="#000000" font-family="Verdana" font-size="12">question_Id</text>
	<text x="771" y="85.8" fill="#000000" font-family="Verdana" font-size="12">rate_Q1</text>
	<text x="771" y="102.8" fill="#000000" font-family="Verdana" font-size="12">rate_Q2</text>
	<text x="771" y="119.8" fill="#000000" font-family="Verdana" font-size="12">rate_Q3</text>
</g>

<!-- Entity DIM_EMPLOYEE -->
<g>
	<g>
		<rect x="9" y="144" width="122" height="25" fill="#80cdc1" stroke="none" stroke-width="0" opacity="1"/>
		<rect x="9" y="169" width="122" height="195" fill="#c7eae5" stroke="none" stroke-width="0" opacity="1"/>
		<rect x="9" y="144" width="122" height="220" fill="none" stroke="#35978f" stroke-width="2" opacity="1"/>
		<line x1="9" y1="169" x2="131" y2="169" stroke="#35978f" stroke-width="1"/>
	</g>
	<text x="24" y="161.75" fill="#000000" font-family="Verdana" font-size="12">Dim_Employee</text>
	<text x="14" y="186.8" fill="#000000" font-family="Verdana" font-size="12">row_id</text>
	<line x1="14" y1="189" x2="56" y2="189" stroke="#000000" stroke-width="1"/>
	<text x="14" y="203.8" fill="#000000" font-family="Verdana" font-size="12">employee_Id</text>
	<text x="14" y="220.8" fill="#000000" font-family="Verdana" font-size="12">employee_Name</text>
	<text x="14" y="237.8" fill="#000000" font-family="Verdana" font-size="12">title</text>
	<text x="14" y="254.8" fill="#000000" font-family="Verdana" font-size="12">reports_To</text>
	<text x="14" y="271.8" fill="#000000" font-family="Verdana" font-size="12">employee_Gender</text>
	<text x="14" y="288.8" fill="#000000" font-family="Verdana" font-size="12">target_Year</text>
	<text x="14" y="305.8" fill="#000000" font-family="Verdana" font-size="12">target_Q1</text>
	<text x="14" y="322.8" fill="#000000" font-family="Verdana" font-size="12">target_Q2</text>
	<text x="14" y="339.8" fill="#000000" font-family="Verdana" font-size="12">target_Q3</text>
	<text x="14" y="356.8" fill="#000000" font-family="Verdana" font-size="12">target_Q4</text>
</g>

<!-- Entity DIM_TRACK -->
<g>
	<g>
		<rect x="764" y="152" width="92" height="25" fill="#80cdc1" stroke="none" stroke-width="0" opacity="1"/>
		<rect x="764" y="177" width="92" height="179" fill="#c7eae5" stroke="none" stroke-width="0" opacity="1"/>
		<rect x="764" y="152" width="92" height="204" fill="none" stroke="#35978f" stroke-width="2" opacity="1"/>
		<line x1="764" y1="177" x2="856" y2="177" stroke="#35978f" stroke-width="1"/>
	</g>
	<text x="777" y="169.75" fill="#000000" font-family="Verdana" font-size="12">Dim_Track</text>
	<text x="769" y="194.8" fill="#000000" font-family="Verdana" font-size="12">track_Id</text>
	<line x1="769" y1="197" x2="821" y2="197" stroke="#000000" stroke-width="1"/>
	<text x="769" y="211.8" fill="#000000" font-family="Verdana" font-size="12">titre</text>
	<text x="769" y="228.8" fill="#000000" font-family="Verdana" font-size="12">album_Name</text>
	<text x="769" y="245.8" fill="#000000" font-family="Verdana" font-size="12">Artist_Name</text>
	<text x="769" y="262.8" fill="#000000" font-family="Verdana" font-size="12">Genre</text>
	<text x="769" y="279.8" fill="#000000" font-family="Verdana" font-size="12">Composer</text>
	<text x="769" y="296.8" fill="#000000" font-family="Verdana" font-size="12">Playlist</text>
	<text x="769" y="313.8" fill="#000000" font-family="Verdana" font-size="12">Milliseconds</text>
	<text x="769" y="330.8" fill="#000000" font-family="Verdana" font-size="12">media</text>
	<text x="769" y="347.8" fill="#000000" font-family="Verdana" font-size="12">unit_Price</text>
</g>

<!-- Entity DIM_QUESTION -->
<g>
	<g>
		<rect x="888" y="220" width="126" height="25" fill="#80cdc1" stroke="none" stroke-width="0" opacity="1"/>
		<rect x="888" y="245" width="126" height="43" fill="#c7eae5" stroke="none" stroke-width="0" opacity="1"/>
		<rect x="888" y="220" width="126" height="68" fill="none" stroke="#35978f" stroke-width="2" opacity="1"/>
		<line x1="888" y1="245" x2="1014" y2="245" stroke="#35978f" stroke-width="1"/>
	</g>
	<text x="908" y="237.75" fill="#000000" font-family="Verdana" font-size="12">Dim_Question</text>
	<text x="893" y="262.8" fill="#000000" font-family="Verdana" font-size="12">question_Id</text>
	<line x1="893" y1="265" x2="966" y2="265" stroke="#000000" stroke-width="1"/>
	<text x="893" y="279.8" fill="#000000" font-family="Verdana" font-size="12">question_Sentence</text>
</g>

<!-- Entity FACT_INVOICE -->
<g>
	<g>
		<rect x="337" y="304" width="90" height="25" fill="#80cdc1" stroke="none" stroke-width="0" opacity="1"/>
		<rect x="337" y="329" width="90" height="161" fill="#c7eae5" stroke="none" stroke-width="0" opacity="1"/>
		<rect x="337" y="304" width="90" height="186" fill="none" stroke="#35978f" stroke-width="2" opacity="1"/>
		<line x1="337" y1="329" x2="427" y2="329" stroke="#35978f" stroke-width="1"/>
	</g>
	<text x="344" y="321.75" fill="#000000" font-family="Verdana" font-size="12">Fact_Invoice</text>
	<text x="342" y="346.8" fill="#000000" font-family="Verdana" font-size="12">row_id</text>
	<line x1="342" y1="349" x2="384" y2="349" stroke="#000000" stroke-width="1"/>
	<text x="342" y="363.8" fill="#000000" font-family="Verdana" font-size="12">invoice_Id</text>
	<text x="342" y="380.8" fill="#000000" font-family="Verdana" font-size="12">customer_Id</text>
	<text x="342" y="397.8" fill="#000000" font-family="Verdana" font-size="12">city_Id</text>
	<text x="342" y="414.8" fill="#000000" font-family="Verdana" font-size="12">employee_Id</text>
	<text x="342" y="431.8" fill="#000000" font-family="Verdana" font-size="12">track_Id</text>
	<text x="342" y="448.8" fill="#000000" font-family="Verdana" font-size="12">quantity</text>
	<text x="342" y="465.8" fill="#000000" font-family="Verdana" font-size="12">invoice_Date</text>
	<text x="342" y="482.8" fill="#000000" font-family="Verdana" font-size="12">total_Invoice</text>
</g>

<!-- Entity DIM_COUNTRY -->
<g>
	<g>
		<rect x="623" y="346" width="92" height="25" fill="#80cdc1" stroke="none" stroke-width="0" opacity="1"/>
		<rect x="623" y="371" width="92" height="77" fill="#c7eae5" stroke="none" stroke-width="0" opacity="1"/>
		<rect x="623" y="346" width="92" height="102" fill="none" stroke="#35978f" stroke-width="2" opacity="1"/>
		<line x1="623" y1="371" x2="715" y2="371" stroke="#35978f" stroke-width="1"/>
	</g>
	<text x="629" y="363.75" fill="#000000" font-family="Verdana" font-size="12">Dim_Country</text>
	<text x="628" y="388.8" fill="#000000" font-family="Verdana" font-size="12">city_Id</text>
	<line x1="628" y1="391" x2="671" y2="391" stroke="#000000" stroke-width="1"/>
	<text x="628" y="405.8" fill="#000000" font-family="Verdana" font-size="12">city_Name</text>
	<text x="628" y="422.8" fill="#000000" font-family="Verdana" font-size="12">country</text>
	<text x="628" y="439.8" fill="#000000" font-family="Verdana" font-size="12">continent</text>
</g>
</svg>